<?xml version="1.0" encoding="UTF-8" standalone="no"?>
<!DOCTYPE svg PUBLIC "-//W3C//DTD SVG 1.1//EN" "http://www.w3.org/Graphics/SVG/1.1/DTD/svg11.dtd">
<svg width="100%" height="100%" viewBox="0 0 161 40" version="1.1" xmlns="http://www.w3.org/2000/svg" xmlns:xlink="http://www.w3.org/1999/xlink" xml:space="preserve" xmlns:serif="http://www.serif.com/" style="fill-rule:evenodd;clip-rule:evenodd;stroke-linejoin:round;stroke-miterlimit:2;">
    <g transform="matrix(1,0,0,1,0.61,3.54629)">
        <text x="30.968px" y="20.674px" style="font-family:'PPMonumentExtended-Regular', 'PP Monument Extended';font-size:16px;fill:url(#_Linear1);">r<tspan x="41.096px 55.8px 70.872px 85.752px 100.904px 115.48px 130.264px 144.168px " y="20.674px 20.674px 20.674px 20.674px 20.674px 20.674px 20.674px 20.674px ">oundcopy</tspan></text>
    </g>
    <g transform="matrix(0.0578149,0,0,0.0578149,-6.24254,3.45118)">
        <path d="M134.96,320.88L175.839,280.001L197.12,280.001L139.44,337.681C142.241,348.88 146.721,360.079 151.76,370.72L241.92,280.001L263.201,280.001L157.921,384.721C163.523,394.241 169.12,403.201 175.843,412.162L308.003,279.442L329.284,279.442L185.354,423.922C192.635,431.762 200.475,439.602 208.315,446.32L350.555,304.08L350.555,324.799L219.515,455.839C228.476,461.999 237.437,468.159 246.956,472.64L349.996,370.16L349.996,391.441L261.516,479.921C271.594,484.96 283.356,488.319 294.555,491.12L349.996,435.679L349.996,456.96L311.355,495.601C324.234,497.281 336.554,498.402 349.996,498.402C360.637,498.402 371.277,497.843 381.355,496.164L381.355,279.444L396.476,279.444L396.476,493.364C407.117,491.125 418.316,487.203 428.398,483.844L428.394,279.444L443.515,279.444L443.515,477.124C454.156,472.085 465.355,465.925 474.874,459.202L474.874,279.442L489.995,279.442L489.995,447.442C502.315,437.923 512.393,426.161 521.917,414.403L521.917,279.443L537.038,279.443L537.038,393.123C557.194,360.643 568.393,321.443 568.393,279.443C568.393,269.365 567.835,258.162 566.155,248.084L133.835,248.08C132.155,258.158 131.596,269.361 131.596,279.439C131.596,293.443 132.714,307.443 134.956,320.88L134.96,320.88ZM563.36,233.521C561.122,222.88 557.758,211.681 553.841,201.599L146.161,201.603C142.801,211.681 138.879,222.884 136.641,233.525L563.36,233.521ZM152.878,186.482L548.24,186.482C542.638,175.841 537.041,164.642 529.76,155.123L170.8,155.123C164.077,164.643 157.359,175.283 152.878,186.482ZM181.999,140.002L518.001,140.002C508.482,128.803 496.72,117.604 485.521,108.08L215.601,108.08C203.281,117.603 192.64,128.24 181.999,140.002ZM463.681,92.963C430.642,72.803 392.001,61.604 350.561,61.604C309.121,61.604 269.92,72.803 236.881,92.963L463.681,92.963Z" style="fill:url(#_Linear2);fill-rule:nonzero;"/>
    </g>
    <defs>
        <linearGradient id="_Linear1" x1="0" y1="0" x2="1" y2="0" gradientUnits="userSpaceOnUse" gradientTransform="matrix(-35.4421,4.34041e-15,-4.34041e-15,-35.4421,115.332,16.0932)"><stop offset="0" style="stop-color:rgb(41,191,18);stop-opacity:1"/><stop offset="1" style="stop-color:rgb(15,116,0);stop-opacity:1"/></linearGradient>
        <linearGradient id="_Linear2" x1="0" y1="0" x2="1" y2="0" gradientUnits="userSpaceOnUse" gradientTransform="matrix(-143.628,121.228,-121.228,-143.628,545.316,104.621)"><stop offset="0" style="stop-color:rgb(171,255,79);stop-opacity:1"/><stop offset="1" style="stop-color:rgb(41,191,18);stop-opacity:1"/></linearGradient>
    </defs>
</svg>
